HIERARCHY
ROOT Hips
{
	OFFSET 0.00000 0.00000 0.00000
	CHANNELS 6 Xposition Yposition Zposition Zrotation Yrotation Xrotation 
	JOINT LHipJoint
	{
		OFFSET 0 0 0
		CHANNELS 3 Zrotation Yrotation Xrotation
		JOINT LeftHip
		{
			OFFSET 1.74857 -1.85566 0.69197
			CHANNELS 3 Zrotation Yrotation Xrotation
			JOINT LeftKnee
			{
				OFFSET 2.40003 -6.59403 0.00000
				CHANNELS 3 Zrotation Yrotation Xrotation
				JOINT LeftAnkle
				{
					OFFSET 2.82169 -7.75254 0.00000
					CHANNELS 3 Zrotation Yrotation Xrotation
					JOINT LeftToe
					{
						OFFSET 0.16466 -0.45240 2.26890
						CHANNELS 3 Zrotation Yrotation Xrotation
						End Site
						{
							OFFSET 0.00000 -0.00000 1.16486
						}
					}
				}
			}
		}
	}
	JOINT RHipJoint
	{
		OFFSET 0 0 0
		CHANNELS 3 Zrotation Yrotation Xrotation
		JOINT RightHip
		{
			OFFSET -1.64169 -1.85566 0.69197
			CHANNELS 3 Zrotation Yrotation Xrotation
			JOINT RightKnee
			{
				OFFSET -2.41814 -6.64379 0.00000
				CHANNELS 3 Zrotation Yrotation Xrotation
				JOINT RightAnkle
				{
					OFFSET -2.80588 -7.70911 0.00000
					CHANNELS 3 Zrotation Yrotation Xrotation
					JOINT RightToe
					{
						OFFSET -0.19098 -0.52472 2.25401
						CHANNELS 3 Zrotation Yrotation Xrotation
						End Site
						{
							OFFSET -0.00000 -0.00000 1.16333
						}
					}
				}
			}
		}
	}
	JOINT lowerback
	{
		OFFSET 0 0 0
		CHANNELS 3 Zrotation Yrotation Xrotation
		JOINT Chest
		{
			OFFSET -0.02828 2.14690 -0.11061
			CHANNELS 3 Zrotation Yrotation Xrotation
			JOINT Chest2
			{
				OFFSET -0.00167 2.15299 0.00759
				CHANNELS 3 Zrotation Yrotation Xrotation
				JOINT lowerneck
				{
					OFFSET 0 0 0
					CHANNELS 3 Zrotation Yrotation Xrotation
					JOINT Neck
					{
						OFFSET -0.09296 1.90118 0.07197
						CHANNELS 3 Zrotation Yrotation Xrotation
						JOINT Head
						{
							OFFSET 0.08490 1.89526 -0.24604
							CHANNELS 3 Zrotation Yrotation Xrotation
							End Site
							{
								OFFSET 0.03186 1.92109 -0.09483
							}
						}
					}
				}
				JOINT LeftCollar
				{
					OFFSET 0 0 0
					CHANNELS 3 Zrotation Yrotation Xrotation
					JOINT LeftShoulder
					{
						OFFSET 3.21569 1.44644 -0.03720
CHANNELS 3 Zrotation Xrotation Yrotation
						JOINT LeftElbow
						{
OFFSET 0 -5.476510 -0.000000
CHANNELS 3 Zrotation Xrotation Yrotation
							JOINT LeftWrist
							{
OFFSET 0 -3.090580 -0.000000
CHANNELS 3 Zrotation Xrotation Yrotation
								JOINT lhand
								{
									OFFSET 0 0 0
CHANNELS 3 Zrotation Xrotation Yrotation
									JOINT LFingers
									{
OFFSET 0 -0.771610 -0.000000
CHANNELS 3 Zrotation Xrotation Yrotation
										End Site
										{
OFFSET 0 -0.622090 -0.000000
										}
									}
								}
								JOINT LThumb
								{
OFFSET 0 0.000000 0.000000
CHANNELS 3 Zrotation Xrotation Yrotation
									End Site
									{
OFFSET 0 -0.631590 0.631590
									}
								}
							}
						}
					}
				}
				JOINT RightCollar
				{
					OFFSET 0 0 0
					CHANNELS 3 Zrotation Yrotation Xrotation
					JOINT RightShoulder
					{
						OFFSET -3.38693 1.28904 -0.07093
CHANNELS 3 Zrotation Xrotation Yrotation
						JOINT RightElbow
						{
OFFSET 0 -5.141820 -0.000000
CHANNELS 3 Zrotation Xrotation Yrotation
							JOINT RightWrist
							{
OFFSET 0 -3.355650 -0.000000
CHANNELS 3 Zrotation Xrotation Yrotation
								JOINT rhand
								{
									OFFSET 0 0 0
CHANNELS 3 Zrotation Xrotation Yrotation
									JOINT RFingers
									{
OFFSET 0 -0.801040 -0.000000
CHANNELS 3 Zrotation Xrotation Yrotation
										End Site
										{
OFFSET 0 -0.645820 -0.000000
										}
									}
								}
								JOINT RThumb
								{
OFFSET 0 0.000000 0.000000
CHANNELS 3 Zrotation Xrotation Yrotation
									End Site
									{
OFFSET 0 -0.655680 0.655680
									}
								}
							}
						}
					}
				}
			}
		}
	}
}
MOTION
Frames: 4
Frame Time: 0.008333333333333333
-0.063710 17.143884 -1.583147 3.563249 0.950054 8.113127 0.000000 0.000000 0.000000 -20.547966 -10.696173 -25.474573 5.824217 14.255779 44.272071 1.954229 -2.272988 -25.833862 0.836060 -5.832927 -16.300310 0.000000 0.000000 0.000000 12.142486 7.903951 -28.066908 -6.642844 -15.023606 47.510214 -2.083968 -5.127471 -29.485174 -0.345707 3.778043 -10.452961 -0.990027 1.591026 6.115012 -1.569320 1.995699 0.087606 -1.239751 0.996167 -3.315308 -8.201037 -4.705851 2.932456 5.388581 -6.660649 7.007035 3.116841 -3.430350 2.255939 0.000000 0.000000 0.000000 40.148235 11.805884 21.500221 137.433527 -49.519066 99.629553 13.312343 22.308023 -34.365627 0.000000 0.000000 0.000000 -7.125000 0.000000 0.000000 -24.289309 63.467038 11.212980 0.000000 0.000000 0.000000 -43.793927 12.620422 97.173690 -82.049128 -59.759782 -53.119934 -19.619937 -9.436176 -35.861682 0.000000 0.000000 0.000000 7.125000 0.000000 0.000000 7.394266 -7.245770 8.333487
-0.077832 17.142180 -1.583457 3.308794 0.998282 8.166082 0.000000 0.000000 0.000000 -20.172849 -10.719582 -25.695151 5.887985 14.318938 44.530535 1.965557 -2.353504 -25.891700 0.815242 -5.761533 -16.093953 0.000000 0.000000 0.000000 12.484890 7.934711 -28.145410 -6.631550 -15.013593 47.466626 -2.061535 -5.286242 -29.423394 -0.396694 4.043468 -11.198905 -0.929971 1.579688 6.099154 -1.542858 1.986594 0.120696 -1.244043 0.990951 -3.271204 -8.279957 -4.726415 2.762193 5.458091 -6.682716 7.101324 3.150599 -3.440764 2.327020 0.000000 0.000000 0.000000 40.311045 11.797831 21.502861 137.413256 -49.529908 99.614189 13.467304 22.328671 -34.570191 0.000000 0.000000 0.000000 -7.125000 0.000000 0.000000 -24.331724 63.690853 11.360914 0.000000 0.000000 0.000000 -43.774872 12.511797 97.119213 -81.989383 -59.756162 -53.068284 -19.546354 -9.484455 -35.807124 0.000000 0.000000 0.000000 7.125000 0.000000 0.000000 7.425417 -7.175666 8.361248
-0.096655 17.137108 -1.589378 3.192874 1.098503 8.163129 0.000000 0.000000 0.000000 -19.949330 -10.780748 -25.840106 5.940417 14.370339 44.742225 1.960154 -2.400020 -25.844060 0.822456 -5.786255 -16.165536 0.000000 0.000000 0.000000 12.695046 7.961476 -28.167524 -6.655013 -15.034428 47.557275 -2.080852 -5.245254 -29.525395 -0.356367 3.834996 -10.613051 -1.075175 1.568045 6.271035 -1.565764 1.955667 0.093367 -1.189844 0.977390 -3.400353 -8.158901 -4.711058 2.821112 5.478664 -6.665602 7.062484 3.137057 -3.429265 2.297248 0.000000 0.000000 0.000000 40.560362 11.858919 21.266436 137.394196 -49.540135 99.599648 13.750382 22.512468 -34.642662 0.000000 0.000000 0.000000 -7.125000 0.000000 0.000000 -24.099044 63.831120 11.324622 0.000000 0.000000 0.000000 -43.765982 12.524232 97.115358 -81.935490 -59.752806 -53.021744 -19.320597 -9.236715 -35.684647 0.000000 0.000000 0.000000 7.125000 0.000000 0.000000 7.528149 -7.006124 8.459418
-0.111428 17.131270 -1.591700 3.064916 1.235031 8.149703 0.000000 0.000000 0.000000 -19.735840 -10.916827 -25.885689 5.981864 14.410784 44.908886 1.961785 -2.371192 -25.862011 0.835247 -5.829974 -16.291927 0.000000 0.000000 0.000000 12.912319 7.774192 -28.213322 -6.662939 -15.041369 47.587718 -2.098328 -5.142239 -29.583994 -0.345367 3.775718 -10.446648 -1.140668 1.577137 6.353031 -1.614063 1.959720 0.106573 -1.205777 0.980055 -3.433192 -8.201515 -4.725491 2.959489 5.586515 -6.700570 7.021720 3.185091 -3.447550 2.268454 0.000000 0.000000 0.000000 40.754835 11.819240 21.167587 137.390576 -49.542107 99.596905 13.528958 22.220356 -34.442804 0.000000 0.000000 0.000000 -7.125000 0.000000 0.000000 -24.133546 63.593369 11.208005 0.000000 0.000000 0.000000 -43.801509 12.523980 97.118693 -81.884039 -59.749612 -52.977235 -20.036548 -9.578657 -35.639015 0.000000 0.000000 0.000000 7.125000 0.000000 0.000000 7.135103 -7.111635 8.022541
